<svg clip-rule="evenodd" fill-rule="evenodd" stroke-linejoin="round" stroke-miterlimit="1.4" version="1.1" viewBox="0 0 16 16" xmlns="http://www.w3.org/2000/svg">
 <path d="m3.135 11.56c-0.46018 0-0.87033-0.37-0.87033-0.83s0.37014-0.83 0.87033-0.83 0.87034 0.37 0.87034 0.83-0.42016 0.83-0.87034 0.83zm11.004-4.5c-0.090035-0.66-0.50019-1.2-1.0004-1.6l-0.21008-0.17-0.17007 0.21c-0.33013 0.37-0.46018 1-0.42016 1.5 0.04002 0.37 0.16006 0.75 0.37014 1-0.17006 0.083-0.38015 0.17-0.54021 0.25-0.38015 0.12-0.75029 0.17-1.1004 0.17h-11.004l-0.040015 0.25c-0.080031 0.79 0.040015 1.6 0.38015 2.4 0.17007 0.33 0 0 0.17007 0.33 1.0004 1.7 2.8011 2.4 4.7018 2.4 3.7014 0 6.8026-1.6 8.2032-5.1 0.95037 0.042 1.9007-0.21 2.4009-1.1l0.12005-0.21-0.20008-0.12c-0.54021-0.33-1.3005-0.37-1.9007-0.21zm-5.302-0.66h-1.6006v1.6h1.6006zm0-2h-1.6006v1.6h1.6006zm0-2.1h-1.6006v1.6h1.6006zm2.0008 4.1h-1.6006v1.6h1.6006zm-6.0023 0h-1.6006v1.6h1.6006zm2.0008 0h-1.6006v1.6h1.6006zm-4.0015 0h-1.6006v1.6h1.6006zm4.0015-2h-1.6006v1.6h1.6006zm-2.0008 0h-1.6006v1.6h1.6006z" fill="#7c94c1" fill-rule="nonzero"/>
</svg>
