<svg enable-background="new 0 0 266.893 266.895" version="1.1" viewBox="0 0 250 250" xmlns="http://www.w3.org/2000/svg">
 <path id="Blue_1_" d="m236.2 250c7.619 0 13.8-6.178 13.8-13.8v-222.4c0-7.622-6.177-13.8-13.8-13.8h-222.4c-7.622 0-13.8 6.176-13.8 13.8v222.4c0 7.62 6.175 13.8 13.8 13.8z" fill="#7c94c1"/>
 <path id="f" d="m172.5 250v-96.81h32.5l4.866-37.73h-37.36v-24.09c0-10.92 3.033-18.37 18.7-18.37l19.98-0.0087v-33.75c-3.455-0.4598-15.32-1.487-29.11-1.487-28.81 0-48.53 17.58-48.53 49.87v27.82h-32.58v37.73h32.58v96.81z" fill="#fff"/>
</svg>
