<svg enable-background="new 0 0 512 512" version="1.1" viewBox="0 0 505 505" xmlns="http://www.w3.org/2000/svg">
 <path d="m252.1 503.3c-138.5-0.5-249.3-114-248.1-253.1 1.1-136.6 111.4-250.1 251.7-248.4 137.1 1.6 246.9 114.8 245.3 253.7-1.5 136-110.8 247.7-248.9 247.8zm-35.4-130.3c-1.6-0.3-2.3-0.4-3.1-0.5-19.1-2.7-37-8.4-53-19.8-17.1-12.2-27.6-28.6-31.9-48.7-4.4-20.5-2.7-41.2 0.5-61.7 2.2-14.1 7-27.4 18-37.5 1.6-1.5 1.5-2.7 0.7-4.7-6-16.6-5.3-33.3-0.3-50 1-3.3 2.6-4.7 6.1-3.4 4.2 1.5 8.5 2.8 12.4 5.1 10.7 6.3 18.9 15 26.1 24.9 1.8 2.4 3 2.8 5.5 1.1 6.2-4.3 13.5-5.6 20.6-6.9 17.2-3.2 34.5-2.6 51.8-1.8 10.1 0.5 20.1 2.3 29.7 5.9 3 1.1 5.7 5 8.5 3.5 2.8-1.4 4.5-5.2 6.7-7.8 8.8-10.6 18.9-19.4 32.5-23.7 4.4-1.4 6.4-0.7 7.9 4 5 16.3 5.7 32.4-0.6 48.4-1 2.5-0.8 4.3 1.3 6.2 8.3 7.7 13.1 17.6 15.6 28.5 4.3 18.6 5.4 37.6 4.2 56.6-1.2 18.2-7.1 34.8-19.3 48.8-16.4 18.8-37.8 28.1-61.9 32.2-2.8 0.5-5.7 1-8.7 1.5 7.1 11.1 10.5 22.6 10.6 35 0.1 14.3 0 28.7 0 43v28c15.2-1.5 43.6-11.6 63.4-22.4 92.3-50.3 138.9-154.2 115.4-257.1-27.8-122.4-148.9-199.7-271.3-173.2-115.6 25.1-195.6 136.5-178.2 258.9 8.1 56.9 34.2 104.5 77.4 142.4 28.5 25 61.5 41.7 98.5 50.3 2.9 0.7 4.2 0.5 4.1-3-0.2-9.8-0.2-19.7 0-29.5 0-3.3-0.6-4.3-4.2-3.6-6.5 1.3-13.2 2-19.9 1.6-21.2-1.1-38.4-9.5-50.5-27.5-4.1-6.1-6.4-13.2-10.3-19.3-6.9-10.7-13-22-24.5-28.9-1.5-0.9-3.3-2.3-2.4-4.4 0.8-2 3-1.7 4.8-1.9 12.8-1 23.3 3.8 32 13 4.6 4.9 7.5 11 11.5 16.3 13.3 17.7 38.7 25.3 59.5 17.8 3-1.1 3.9-2.6 4.3-5.7 1.2-10.5 3.2-20.8 10.5-30z" fill="#7c94c1"/>
 <circle cx="252.5" cy="252.5" r="247.5" fill="none" stroke="#7c94c1" stroke-linejoin="round" stroke-width="10"/>
</svg>
