<svg enable-background="new 0 0 490.225 490.225" version="1.1" viewBox="0 0 490 490" xmlns="http://www.w3.org/2000/svg">
 <g>
  <path d="m266 20.5c-61.1 0-118 24.1-161 67.8-3.8 3.9-3.7 10.2 0.2 14s10.2 3.7 14-0.2c38.9-39.9 90.9-61.8 147-61.8 113 0 205 91.9 205 205s-91.9 205-205 205-205-91.9-205-205v-8.1l24.1 24.1c1.9 1.9 4.5 2.9 7 2.9s5.1-1 7-2.9c3.9-3.9 3.9-10.1 0-14l-41-41c-3.9-3.9-10.1-3.9-14 0l-41 41c-3.9 3.9-3.9 10.1 0 14 1.9 1.9 4.5 2.9 7 2.9s5.1-1 7-2.9l24.1-24.1v8.1c0 124 101 225 225 225s225-101 225-225-101-225-225-225z" fill="#555"/>
  <path d="m266 121c-36.3 0-65.8 29.5-65.8 65.8v34h-22.5c-5.5 0-9.9 4.4-9.9 9.9v114c0 5.5 4.4 9.9 9.9 9.9h176c5.5 0 9.9-4.4 9.9-9.9v-114c0-5.5-4.4-9.9-9.9-9.9h-22.5v-34c0.1-36.2-29.4-65.7-65.7-65.7zm-46 65.8c0-25.4 20.6-46 46-46s46 20.6 46 46v34h-91.9v-34zm124 53.7v94.1h-157v-94.1z" fill="#7c94c1"/>
  <rect x="179" y="234" width="175" height="110" fill="#7c94c1"/>
 </g>
</svg>
